<svg id="Capa_1" enable-background="new 0 0 512 512" height="512" viewBox="0 0 512 512" width="512" xmlns="http://www.w3.org/2000/svg"><g><g><g><g><g><g><g><g><path d="m300.103 477.805v-443.61c0-17.37-14.082-31.452-31.452-31.452h-237.199c-17.37 0-31.452 14.081-31.452 31.452v443.611c0 17.37 14.082 31.452 31.452 31.452h237.199c17.37-.001 31.452-14.082 31.452-31.453z" fill="#f9f6f9"/><path d="m329.116 2.743h-68.792c17.37 0 31.452 14.082 31.452 31.452v443.611c0 17.37-14.082 31.452-31.452 31.452h68.792c17.37 0 31.452-14.082 31.452-31.452v-443.611c0-17.371-14.081-31.452-31.452-31.452z" fill="#dddaec"/><path d="m300.103 44.538h-243.698c-8.069 0-14.61 6.541-14.61 14.61v359.098c0 8.069 6.541 14.61 14.61 14.61h243.697v-388.318z" fill="#c9e0fd"/><path d="m304.163 44.538h-12.387v388.318h12.387c8.069 0 14.61-6.541 14.61-14.61v-359.098c0-8.069-6.541-14.61-14.61-14.61z" fill="#bcd6f9"/><path d="m300.103 44.538h-243.698c-8.069 0-14.61 6.541-14.61 14.61v36.846h258.307v-51.456z" fill="#9bc4f9"/><path d="m304.163 44.538h-12.387v51.456h26.997v-36.846c0-8.069-6.542-14.61-14.61-14.61z" fill="#7fb2f9"/></g><g><path d="m197.1 476.645h-33.632c-4.221 0-7.644-3.422-7.644-7.644 0-4.221 3.422-7.644 7.644-7.644h33.632c4.221 0 7.644 3.422 7.644 7.644-.001 4.221-3.423 7.644-7.644 7.644z" fill="#9bc4f9"/></g></g><g fill="#ffc250"><circle cx="84.23" cy="70.266" r="7.644"/><circle cx="119.135" cy="70.266" r="7.644"/><circle cx="154.041" cy="70.266" r="7.644"/></g></g></g></g></g></g><g><g><g><g><g><g><path d="m446.905 378.478v-228.105c0-10.006-8.111-18.117-18.117-18.118h-275.837c-10.006 0-18.118 8.112-18.118 18.118v228.106c0 10.006 8.112 18.118 18.118 18.118h275.837c10.005-.001 18.117-8.113 18.117-18.119z" fill="#ffd064"/><path d="m446.905 164.867h-272.82c-3.667 0-6.639 2.972-6.639 6.639v185.838c0 3.667 2.972 6.639 6.639 6.639h272.82z" fill="#fff"/></g></g></g></g><g><g><g><g><path d="m493.882 132.254h-68.153c10.006 0 18.118 8.112 18.118 18.118v228.106c0 10.006-8.112 18.118-18.118 18.118h68.153c10.006 0 18.118-8.112 18.118-18.118v-228.105c0-10.007-8.112-18.119-18.118-18.119z" fill="#ffc250"/><path d="m472.749 164.867h-28.901v199.116h28.901c3.667 0 6.639-2.972 6.639-6.639v-185.838c0-3.666-2.973-6.639-6.639-6.639z" fill="#f9f6f9"/></g></g></g></g></g><g><g><g><g><g><g><g><g><g><g><g><path d="m270.452 301.268c-4.24-.816-7.798-4.788-7.798-9.107v-24.739h-34.435v24.739c0 4.412-3.599 8.315-7.721 9.107 0 0 12.658 20.924 24.939 20.981 12.837.06 25.015-20.981 25.015-20.981z" fill="#ffcbbe"/></g></g></g></g></g></g></g></g></g><g><path d="m302.347 312.932c-6.391-4.782-13.912-8.203-22.178-9.794l-9.717-1.87-.017.019c-13.257 15.029-36.692 15.021-49.938-.019l-9.717 1.87c-6.357 1.223-12.274 3.529-17.574 6.704-16.57 9.926-26.127 28.337-25.668 47.648.009.378.019.743.029 1.099.583 3.071 3.278 5.394 6.518 5.394h149.362c.001-.939.002-5.991.002-7.242 0-17.106-7.405-33.559-21.102-43.809z" fill="#4a80aa"/></g><g><path d="m302.347 312.932c-6.391-4.782-13.912-8.203-22.178-9.794l-9.717-1.87-.017.019c-7.836 8.883-19.227 12.51-29.969 10.887 9.659 8.966 14.829 19.24 14.829 33.51 0 1.251-.001 17.36-.002 18.299h68.153c.001-.939.002-5.991.002-7.242.001-17.106-7.404-33.559-21.101-43.809z" fill="#365e7d"/></g></g><g><g><g><g><g><g><g><g><g><g><path d="m426.385 301.268c-4.24-.816-7.798-4.788-7.798-9.107v-24.739h-34.435v24.739c0 4.412-3.599 8.315-7.721 9.107 0 0 12.658 20.924 24.939 20.981 12.837.06 25.015-20.981 25.015-20.981z" fill="#ffcbbe"/></g></g></g></g></g></g></g></g></g><path d="m458.28 312.932c-6.39-4.782-13.912-8.203-22.178-9.794l-9.717-1.87-.017.019c-13.257 15.029-36.692 15.021-49.938-.019l-9.717 1.87c-6.357 1.223-12.274 3.529-17.575 6.704-16.57 9.926-25.668 28.332-25.668 47.648l-.024 6.493h149.302c3.506 0 6.371-2.72 6.615-6.164.006-.352.012-.709.018-1.078.255-17.104-7.404-33.559-21.101-43.809z" fill="#dd5790"/></g></g><path d="m286.719 244.572c-.004-.866-.188-1.687-.515-2.429-.558-1.264-.638-2.656-.176-3.958.219-.617.336-1.277.336-1.958v-19.352c0-5.561-4.508-10.069-10.069-10.069h-.44c-1.873 0-3.296-1.555-3.301-3.428-.015-5.548-4.517-10.042-10.069-10.042h-32.048c-14.262 0-25.824 11.562-25.824 25.824v17.066c0 .755.144 1.484.409 2.158.486 1.234.419 2.635-.168 3.824-.403.817-.629 1.739-.625 2.716l.028 6.703c.014 3.341 2.701 6.037 6.001 6.023 1.242-.005 2.275.941 2.388 2.179.729 7.978 4.326 15.5 10.383 20.733 5.32 4.597 12.788 8.598 22.63 8.667 9.842-.153 17.276-4.217 22.558-8.86 6.013-5.285 9.547-12.838 10.21-20.822.103-1.238 1.127-2.193 2.369-2.198 3.3-.014 5.965-2.734 5.951-6.074z" fill="#ffddce"/><path d="m442.652 244.572c-.004-.866-.188-1.687-.515-2.429-.558-1.264-.638-2.656-.176-3.958.219-.617.336-1.277.336-1.958v-19.352c0-5.561-4.508-10.069-10.069-10.069h-.44c-1.873 0-3.296-1.555-3.301-3.428-.015-5.548-4.517-10.042-10.069-10.042h-32.048c-14.262 0-25.824 11.562-25.824 25.824v17.066c0 .755.144 1.484.409 2.158.486 1.234.419 2.635-.168 3.824-.403.817-.629 1.739-.625 2.716l.028 6.703c.014 3.341 2.701 6.037 6.001 6.023 1.242-.005 2.275.941 2.388 2.179.729 7.978 4.326 15.5 10.383 20.733 5.32 4.597 12.788 8.598 22.63 8.667 9.842-.153 17.276-4.217 22.558-8.86 6.013-5.285 9.547-12.838 10.21-20.822.103-1.238 1.127-2.193 2.369-2.198 3.3-.014 5.965-2.734 5.951-6.074z" fill="#ffddce"/><path d="m214.615 235.872c2.791 0 5.053-2.262 5.053-5.053s2.262-5.053 5.053-5.053h41.507c2.791 0 5.053 2.262 5.053 5.053s2.262 5.053 5.053 5.053h10.029v-18.997c0-5.561-4.508-10.069-10.069-10.069h-.439c-1.873 0-3.296-1.555-3.301-3.428-.015-5.548-4.517-10.042-10.069-10.042h-32.048c-14.262 0-25.824 11.562-25.824 25.824v16.711h10.002z" fill="#4a80aa"/><path d="m370.548 235.872c2.791 0 5.053-2.262 5.053-5.053s2.262-5.053 5.053-5.053h41.507c2.791 0 5.053 2.262 5.053 5.053s2.262 5.053 5.053 5.053h10.029v-18.997c0-5.561-4.508-10.069-10.069-10.069h-.439c-1.873 0-3.296-1.555-3.301-3.428-.015-5.548-4.517-10.042-10.069-10.042h-32.048c-14.262 0-25.824 11.562-25.824 25.824v16.711h10.002z" fill="#4a80aa"/><path d="m472.749 363.983c3.506 0 6.371-2.72 6.615-6.164.006-.352.012-.709.018-1.078.255-17.105-7.405-33.56-21.101-43.809-6.39-4.782-13.912-8.203-22.178-9.794l-9.717-1.87-.017.019c-7.834 8.881-19.222 12.508-29.961 10.888 9.658 8.966 14.828 19.24 14.828 33.509 0 1.251-.001 17.36-.002 18.299z" fill="#da387d"/></g></g></svg>